<svg xmlns="http://www.w3.org/2000/svg" viewBox="0 0 800 400"><g transform="rotate(-10 -284.6 -186.12)"><rect width="200" height="340" x="147.96" y="131.873" fill="#3d3d66" rx="17.354" ry="22.011"/><rect width="180" height="320" x="157.96" y="141.873" fill="#dbdfff" rx="15.619" ry="20.716"/><path fill="#fff" d="M157.96 161.873h180v280h-180z"/><g fill="#2e3856" aria-label="$$$" font-size="80" font-weight="700" style="-inkscape-font-specification:&quot;sans-serif Bold&quot;"><path d="M184.76 269.393q-5.2-.16-9.28-.96-4.08-.88-7.44-2.4v-10.32q3.28 1.6 7.92 2.96 4.64 1.28 8.8 1.52v-12.08q-6.16-2.4-9.92-4.64-3.68-2.32-5.28-5.12-1.6-2.8-1.6-6.72 0-6 4.64-9.52 4.72-3.6 12.16-4.24v-6h5.36v5.84q8.88.32 16.16 3.6l-3.68 9.12q-3.2-1.36-6.48-2.08-3.2-.72-6-.96v11.52q4.32 1.6 8.24 3.52 3.92 1.84 6.32 4.72 2.48 2.88 2.48 7.6 0 5.84-4.24 9.76t-12.8 4.72v8h-5.36zm0-41.84q-5.04.72-5.04 4.08 0 1.68 1.2 2.8 1.2 1.12 3.84 2.32zm5.36 32.4q5.28-.96 5.28-4.64 0-1.6-1.36-2.72-1.28-1.2-3.92-2.4zM230.52 269.393q-5.2-.16-9.28-.96-4.08-.88-7.44-2.4v-10.32q3.28 1.6 7.92 2.96 4.64 1.28 8.8 1.52v-12.08q-6.16-2.4-9.92-4.64-3.68-2.32-5.28-5.12-1.6-2.8-1.6-6.72 0-6 4.64-9.52 4.72-3.6 12.16-4.24v-6h5.36v5.84q8.88.32 16.16 3.6l-3.68 9.12q-3.2-1.36-6.48-2.08-3.2-.72-6-.96v11.52q4.32 1.6 8.24 3.52 3.92 1.84 6.32 4.72 2.48 2.88 2.48 7.6 0 5.84-4.24 9.76t-12.8 4.72v8h-5.36zm0-41.84q-5.04.72-5.04 4.08 0 1.68 1.2 2.8 1.2 1.12 3.84 2.32zm5.36 32.4q5.28-.96 5.28-4.64 0-1.6-1.36-2.72-1.28-1.2-3.92-2.4zM276.28 269.393q-5.2-.16-9.28-.96-4.08-.88-7.44-2.4v-10.32q3.28 1.6 7.92 2.96 4.64 1.28 8.8 1.52v-12.08q-6.16-2.4-9.92-4.64-3.68-2.32-5.28-5.12-1.6-2.8-1.6-6.72 0-6 4.64-9.52 4.72-3.6 12.16-4.24v-6h5.36v5.84q8.88.32 16.16 3.6l-3.68 9.12q-3.2-1.36-6.48-2.08-3.2-.72-6-.96v11.52q4.32 1.6 8.24 3.52 3.92 1.84 6.32 4.72 2.48 2.88 2.48 7.6 0 5.84-4.24 9.76t-12.8 4.72v8h-5.36zm0-41.84q-5.04.72-5.04 4.08 0 1.68 1.2 2.8 1.2 1.12 3.84 2.32zm5.36 32.4q5.28-.96 5.28-4.64 0-1.6-1.36-2.72-1.28-1.2-3.92-2.4z"/></g><rect width="80" height="30" x="167.96" y="381.873" fill="#4255ff" rx="10" ry="10"/><rect width="50" height="20" x="277.96" y="171.873" fill="#ffdc62" rx="6" ry="6"/><circle cx="177.96" cy="181.873" r="10" fill="#4255ff"/><rect width="160" height="20" x="167.96" y="291.873" fill="#586380" rx="6" ry="6"/><rect width="160" height="20" x="167.96" y="321.873" fill="#586380" rx="6" ry="6"/><rect width="160" height="20" x="167.96" y="351.873" fill="#586380" rx="6" ry="6"/></g><path fill="#f66" d="M178.004 161.58q0-7.813 5.469-13.282 5.468-5.468 13.28-5.468 7.813 0 13.282 5.468l20.117 20.118 40.235 40.234 20.117 20.117 80.469-80.469q5.664-6.054 13.672-6.054 6.64 0 11.523 4.101 5.078 3.906 6.64 10.156.587 2.344.587 4.688 0 8.008-5.86 13.672l-80.469 80.469 80.47 80.468q6.054 5.664 6.054 13.672 0 6.64-4.102 11.719-3.906 4.883-10.156 6.445-2.344.586-4.687.586-8.008 0-13.672-5.86l-80.47-80.468-80.468 80.469q-5.469 5.078-12.89 5.078-7.618 0-13.282-5.469-5.468-5.664-5.468-13.281 0-7.422 5.078-12.89l20.117-20.118 40.234-40.234 20.117-20.117-80.468-80.47q-5.47-5.468-5.47-13.28z" aria-label="" font-size="400" font-weight="700" style="-inkscape-font-specification:&quot;sans-serif Bold&quot;" transform="rotate(-10)"/><g transform="rotate(10 477.054 -464.282)"><rect width="200" height="340" x="500" y="20" fill="#5c5c99" rx="21.245" ry="22.112"/><rect width="180" height="320" x="510" y="30" fill="#3d3d66" rx="19.121" ry="20.811"/><path fill="#1e1e32" d="M510 50h180v280H510z"/><rect width="80" height="30" x="522.248" y="249.856" fill="#7a52cc" rx="10" ry="10"/><g fill="#52cca3" aria-label="FREE" font-size="60" font-weight="700" style="-inkscape-font-specification:&quot;sans-serif Bold&quot;"><path d="M528.94 142.84H520V100h24.54v7.44h-15.6v11.04h14.52v7.44h-14.52zM565.42 100q8.76 0 12.9 3.18 4.2 3.18 4.2 9.66 0 2.94-1.14 5.16-1.08 2.16-2.94 3.72-1.8 1.5-3.9 2.46l12.6 18.66h-10.08l-10.2-16.44H562v16.44h-9.06V100Zm-.66 7.44H562v11.58h2.94q4.5 0 6.42-1.5 1.98-1.5 1.98-4.44 0-3.06-2.1-4.32-2.04-1.32-6.48-1.32zM617.2 142.84h-24.66V100h24.66v7.44h-15.6v9.42h14.52v7.44H601.6v11.04h15.6zM650.8 142.84h-24.66V100h24.66v7.44h-15.6v9.42h14.52v7.44H635.2v11.04h15.6z"/></g><rect width="160" height="20" x="520" y="160" fill="#a3a3cc" rx="6" ry="6"/><rect width="160" height="20" x="520" y="190" fill="#a3a3cc" rx="6" ry="6"/><rect width="160" height="20" x="520" y="220" fill="#a3a3cc" rx="6" ry="6"/></g><path fill="#52cca3" d="M629.486 187.931q3.907 0 6.64 2.735 2.735 2.734 2.735 6.64 0 3.907-2.734 6.64l-90.625 90.626q-2.734 2.734-6.64 2.734-3.907 0-6.641-2.734l-10.157-10.156-20.312-20.313-10.156-10.156q-2.54-2.734-2.54-6.445 0-3.809 2.735-6.543 2.832-2.832 6.64-2.832 3.712 0 6.446 2.539l8.496 8.496 16.992 16.992 8.496 8.496 83.985-83.984q2.734-2.735 6.64-2.735z" aria-label="" font-size="200" font-weight="700" style="-inkscape-font-specification:&quot;sans-serif Bold&quot;" transform="rotate(10)"/></svg>