<svg width="512" height="512" xmlns:xlink="http://www.w3.org/1999/xlink" xmlns="http://www.w3.org/2000/svg"><defs><linearGradient id="a"><stop style="stop-color:#00b377;stop-opacity:1" offset="0"/><stop style="stop-color:#6fc;stop-opacity:1" offset="1"/></linearGradient><linearGradient id="b"><stop style="stop-color:#7c49f2;stop-opacity:1" offset="0"/><stop style="stop-color:#9466ff;stop-opacity:1" offset="1"/></linearGradient><linearGradient xlink:href="#a" id="d" x1="130" y1="400" x2="385" y2="150" gradientUnits="userSpaceOnUse" gradientTransform="translate(36.902 -20.78)"/><linearGradient xlink:href="#b" id="c" gradientUnits="userSpaceOnUse" gradientTransform="translate(33.36 -551.01)" x1="70" y1="140" x2="375" y2="450"/></defs><path d="M295.74-412.406q6.927 6.745 6.927 16.406 0 9.662-6.927 16.589-6.745 6.744-16.407 6.744H116q-9.661 0-16.588-6.744-6.745-6.927-6.745-16.589 0-9.661 6.745-16.406 6.927-6.927 16.588-6.927h163.333q9.662 0 16.407 6.927zm0 186.666q6.927 6.745 6.927 16.407 0 9.661-6.927 16.588Q288.995-186 279.333-186H116q-9.661 0-16.588-6.745-6.745-6.927-6.745-16.588 0-9.662 6.745-16.407 6.927-6.927 16.588-6.927h163.333q9.662 0 16.407 6.927zM99.412-286.078q-6.745-6.927-6.745-16.589 0-9.661 6.745-16.406Q106.339-326 116-326h280q9.661 0 16.406 6.927 6.927 6.745 6.927 16.406 0 9.662-6.927 16.589-6.745 6.745-16.406 6.745H116q-9.661 0-16.588-6.745zm312.994 153.672q6.927 6.744 6.927 16.406 0 9.661-6.927 16.406-6.745 6.927-16.406 6.927H116q-9.661 0-16.588-6.927-6.745-6.745-6.745-16.406 0-9.662 6.745-16.406 6.927-6.927 16.588-6.927h280q9.661 0 16.406 6.927z" style="font-size:373.333px;font-family:'NotoMono Nerd Font Propo';-inkscape-font-specification:'NotoMono Nerd Font Propo';fill:url(#c);stroke-width:40;paint-order:markers stroke fill" transform="scale(1 -1)" aria-label=""/><path d="M395.792 139.333q8.333 0 14.166 5.834 5.834 5.833 5.834 14.166 0 8.334-5.834 14.167L216.625 366.833q-5.833 5.834-14.167 5.834-8.333 0-14.166-5.834l-21.667-21.666-43.333-43.334-21.667-21.666q-5.417-5.834-5.417-13.75 0-8.125 5.834-13.959 6.041-6.041 14.166-6.041 7.917 0 13.75 5.416l18.125 18.125 36.25 36.25 18.125 18.125 179.167-179.166q5.833-5.834 14.167-5.834z" style="font-size:426.667px;font-family:'NotoMono Nerd Font Propo';-inkscape-font-specification:'NotoMono Nerd Font Propo';fill:url(#d);stroke:#2b2b3d;stroke-width:40;paint-order:markers stroke fill" aria-label=""/></svg>