<?xml version="1.0" encoding="UTF-8" standalone="no"?>
<!-- Created with Inkscape (http://www.inkscape.org/) -->

<svg
   width="200"
   height="200"
   viewBox="0 0 200 200"
   version="1.1"
   id="SVGRoot"
   xmlns="http://www.w3.org/2000/svg"
   xmlns:svg="http://www.w3.org/2000/svg">
  <defs
     id="defs1887" />
  <path
     d="M 10.531915,20 H 180.74468 l 0.85106,20.355554 H 10 Z M 10,66.666665 h 147.34043 l -0.31915,19.999999 H 10.531915 Z m 0.531915,46.666665 H 189.46809 l 0.53191,20 H 10 Z M 10,159.64444 H 115.31915 L 114.68084,180 H 10.531915 Z"
     id="path394"
     style="font-weight:bold;font-size:200px;-inkscape-font-specification:'sans-serif Bold';fill:#3d3d66;stroke-width:0.995771" />
  <path
     d="M 100.00004,20.000005 C 57.321955,20.000005 30,52.603775 30,96.880499 30,141.15722 57.321955,173.761 100.00004,173.761 c 14.95727,0 26.12537,-3.01887 37.69233,-10.0629 l 17.15101,16.30189 15.1567,-16.30189 -15.95442,-15.29559 c 9.77208,-12.07547 15.95442,-32.20125 15.95442,-51.924527 0,-43.069177 -26.72365,-76.477978 -70.00004,-76.477978 z m 17.15101,93.182385 -15.15671,16.30188 15.35614,14.69182 c -4.5869,2.4151 -11.1681,3.8239 -17.549868,3.8239 -23.931638,0 -39.886063,-20.32704 -39.886063,-51.119491 0,-30.792449 15.954425,-51.119491 40.085491,-51.119491 24.33051,0 40.08549,20.125784 40.08549,51.320749 0,12.075473 -2.19373,22.943393 -6.58119,31.798733 z"
     id="path167"
     style="font-weight:bold;font-size:200.342px;-inkscape-font-specification:'sans-serif Bold';fill:#7a52cc;stroke-width:1.00161" />
</svg>
