<!--
  Quizfreely
  Copyright (c) Ehan Ahamed and contributors
  Licensed under the UPL-1.0 License
  https://quizfreely.com/LICENSE.txt
-->
<svg xmlns="http://www.w3.org/2000/svg" viewBox="0 0 200 200"><path fill="#3d3d66" d="M33.761 54.735h-9.656L10 39.973l9.656-9.66 9.657 9.66L48.517 20l10.416 10.312Zm45.136-20.732H190v14.111H78.897Zm0 41.574H190v14.002H78.897ZM190 117.802H78.897v13.351H190ZM78.897 159.267H190v14.112H78.897ZM24.105 96.31h9.656l25.172-24.532-10.416-9.552-19.204 19.213-9.657-9.66L10 82.197Zm9.656 42.226h-9.656L10 123.664l9.656-9.553 9.657 9.552 19.204-19.972 10.416 9.66zM24.105 180h9.656l25.172-24.423-10.416-9.661-19.204 19.321-9.657-9.66-9.656 9.66Z" font-size="200" font-weight="700" style="-inkscape-font-specification:&quot;sans-serif Bold&quot;"/><path fill="#7a52cc" d="M100 20c-42.678 0-70 32.604-70 76.88 0 44.277 27.322 76.881 70 76.881 14.957 0 26.125-3.019 37.692-10.063L154.843 180 170 163.698l-15.954-15.295C163.818 136.327 170 116.2 170 96.478 170 53.408 143.276 20 100 20zm17.151 93.182-15.157 16.302 15.356 14.692C112.764 146.591 106.182 148 99.8 148c-23.931 0-39.885-20.327-39.885-51.12 0-30.792 15.954-51.119 40.085-51.119 24.33 0 40.086 20.126 40.086 51.32 0 12.076-2.194 22.944-6.582 31.8z" font-size="200.342" font-weight="700" style="-inkscape-font-specification:&quot;sans-serif Bold&quot;"/></svg>
