<?xml version="1.0" encoding="UTF-8" standalone="no"?>
<!-- Created with Inkscape (http://www.inkscape.org/) -->

<svg
   width="200"
   height="200"
   viewBox="0 0 200 200"
   version="1.1"
   id="SVGRoot"
   xmlns="http://www.w3.org/2000/svg"
   xmlns:svg="http://www.w3.org/2000/svg">
  <defs
     id="defs1887" />
  <path
     d="M 33.761301,54.735413 H 24.104882 L 10,39.972863 19.65642,30.312076 29.312839,39.972863 48.517178,20 58.933091,30.312076 Z m 45.135623,-20.7327 H 190 V 48.113974 H 78.896924 Z m 0,41.573948 H 190 V 89.579373 H 78.896924 Z M 190,117.8019 H 78.896924 v 13.35142 H 190 Z M 78.896924,159.26729 H 190 v 14.11126 H 78.896924 Z M 24.104882,96.309359 h 9.656419 L 58.933091,71.777474 48.517178,62.225236 29.312839,81.438261 19.65642,71.777474 10,82.198098 Z M 33.761301,138.5346 H 24.104882 L 10,123.6635 l 9.65642,-9.55224 9.656419,9.55224 19.204339,-19.97287 10.415913,9.66079 z M 24.104882,180 h 9.656419 L 58.933091,155.57666 48.517178,145.91587 29.312839,165.23745 19.65642,155.57666 10,165.23745 Z"
     id="path513"
     style="font-weight:bold;font-size:200px;-inkscape-font-specification:'sans-serif Bold';fill:#3d3d66;stroke-width:1.11128" />
  <path
     d="M 100.00004,20.000005 C 57.321955,20.000005 30,52.603775 30,96.880499 30,141.15722 57.321955,173.761 100.00004,173.761 c 14.95727,0 26.12537,-3.01887 37.69233,-10.0629 l 17.15101,16.30189 15.1567,-16.30189 -15.95442,-15.29559 c 9.77208,-12.07547 15.95442,-32.20125 15.95442,-51.924527 0,-43.069177 -26.72365,-76.477978 -70.00004,-76.477978 z m 17.15101,93.182385 -15.15671,16.30188 15.35614,14.69182 c -4.5869,2.4151 -11.1681,3.8239 -17.549868,3.8239 -23.931638,0 -39.886063,-20.32704 -39.886063,-51.119491 0,-30.792449 15.954425,-51.119491 40.085491,-51.119491 24.33051,0 40.08549,20.125784 40.08549,51.320749 0,12.075473 -2.19373,22.943393 -6.58119,31.798733 z"
     id="path167"
     style="font-weight:bold;font-size:200.342px;-inkscape-font-specification:'sans-serif Bold';fill:#7a52cc;stroke-width:1.00161" />
</svg>
